#!OML:ASF F:\VICON\USERDATA\INSTALL\rory3\rory3.ASF
:FULLY-SPECIFIED
:DEGREES
229
root 0.552129 17.1124 16.0978 1.39339 -5.39376 -6.29776
lowerback 5.90885 1.97974 5.98242
upperback 0.166117 3.14246 3.2787
thorax -3.0084 1.49687 -0.219937
lowerneck -16.5796 -3.15499 -9.7314
upperneck 22.4961 -3.1755 5.71625
head 10.17 -1.63673 3.22356
rclavicle -1.30452e-014 -1.74931e-014
rhumerus -19.7562 -3.51519 -77.5887
rradius 37.8107
rwrist -0.0568254
rhand -15.5395 15.7007
rfingers 7.12502
rthumb 10.6444 -14.0097
lclavicle -1.30452e-014 -1.74931e-014
lhumerus -39.3226 8.32892 87.9959
lradius 25.2943
lwrist -19.7506
lhand -5.92775 27.7175
lfingers 7.12502
lthumb 19.9018 56.7185
rfemur 13.8681 5.04679 30.6329
rtibia 17.6226
rfoot -14.3945 1.20214
rtoes -2.64665
lfemur -30.84 -5.36864 -9.06154
ltibia 17.7724
lfoot -10.3707 11.9676
ltoes -4.28246
230
root 0.559531 17.0956 16.2935 1.31945 -5.2866 -6.52088
lowerback 6.2547 1.98083 6.11342
upperback -0.136759 3.20599 3.33213
thorax -3.51161 1.50947 -0.262349
lowerneck -15.863 -3.10581 -9.68386
upperneck 22.4722 -3.19688 5.73284
head 10.0262 -1.65028 3.22093
rclavicle 7.05686e-015 7.95139e-015
rhumerus -20.2766 -3.47592 -77.5364
rradius 38.3937
rwrist -0.53861
rhand -15.1773 14.4763
rfingers 7.12502
rthumb 10.9938 -15.2158
lclavicle 7.05686e-015 7.95139e-015
lhumerus -39.9802 8.18492 87.909
lradius 24.9189
lwrist -19.9519
lhand -6.15729 27.1935
lfingers 7.12502
lthumb 19.6811 56.2172
rfemur 14.4377 5.21856 30.9189
rtibia 17.9012
rfoot -13.6052 1.73374
rtoes -1.11437
lfemur -30.7997 -4.03587 -9.48548
ltibia 18.3616
lfoot -9.43583 10.4593
ltoes -1.08134
231
root 0.570338 17.08 16.5025 1.14011 -4.96519 -6.31122
lowerback 6.1493 1.89622 5.86219
upperback -0.0277261 3.05825 3.30415
thorax -3.35663 1.44607 -0.133826
lowerneck -15.7004 -3.09839 -9.78101
upperneck 22.3251 -3.20147 5.84801
head 9.94667 -1.64783 3.27588
rclavicle -1.32689e-014 -3.57812e-015
rhumerus -20.2784 -3.54901 -77.4578
rradius 38.393
rwrist -0.022297
rhand -15.5606 15.2344
rfingers 7.12502
rthumb 10.624 -14.4771
lclavicle -1.32689e-014 -3.57812e-015
lhumerus -40.041 8.20033 87.9079
lradius 24.6431
lwrist -19.8295
lhand -6.00671 26.8472
lfingers 7.12502
lthumb 19.8259 55.856
rfemur 14.9509 5.09322 30.6573
rtibia 18.4692
rfoot -13.177 2.1637
rtoes -1.10593
lfemur -30.6863 -2.63987 -10.6292
ltibia 19.2244
lfoot -8.46962 8.91169
ltoes -0.878415
232
root 0.588424 17.0653 16.7139 0.997545 -4.53075 -5.83387
lowerback 5.96824 1.7639 5.41165
upperback 0.170439 2.82087 3.21999
thorax -3.07555 1.34421 0.0582137
lowerneck -16.0894 -3.14717 -9.76751
upperneck 22.3216 -3.21506 5.77587
head 10.0194 -1.65554 3.24429
rclavicle -1.31198e-014 9.93923e-015
rhumerus -20.0252 -3.64806 -77.3767
rradius 38.7102
rwrist -0.0500954
rhand -15.3226 15.1917
rfingers 7.12502
rthumb 10.8536 -14.5078
lclavicle -1.31198e-014 9.93923e-015
lhumerus -39.94 8.47197 87.8606
lradius 24.3504
lwrist -19.9274
lhand -5.39125 27.2156
lfingers 7.12502
lthumb 20.4175 56.1622
rfemur 15.2835 4.78079 30.0404
rtibia 19.2265
rfoot -12.9087 2.45878
rtoes -2.77271
lfemur -30.6605 -1.8031 -11.917
ltibia 20.3055
lfoot -7.88683 7.66224
ltoes -1.71489
233
root 0.599019 17.0469 16.9241 0.815125 -4.36052 -5.74389
lowerback 6.07767 1.72317 5.25682
upperback 0.238515 2.76101 3.22288
thorax -3.07576 1.31762 0.149177
lowerneck -16.3592 -3.18865 -9.6007
upperneck 22.332 -3.25778 5.6415
head 10.0727 -1.67275 3.16124
rclavicle -2.48978e-014 -7.95139e-015
rhumerus -19.9994 -3.75184 -77.3548
rradius 39.0932
rwrist -0.332868
rhand -15.0465 14.8218
rfingers 7.12502
rthumb 11.1199 -14.8636
lclavicle -2.48978e-014 -7.95139e-015
lhumerus -40.124 8.44933 87.839
lradius 24.1812
lwrist -20.1742
lhand -5.75299 26.5552
lfingers 7.12502
lthumb 20.0698 55.5386
rfemur 15.6385 4.99219 30.0435
rtibia 20.0635
rfoot -12.1588 2.49256
rtoes -3.12821
lfemur -30.5366 -1.15804 -12.5317
ltibia 21.4943
lfoot -7.44907 6.37372
ltoes -2.81789
